<svg width="397" height="140" version="1.1" xmlns="http://www.w3.org/2000/svg" desc="Created with imagetracer.js version 1.2.6" ><path fill="rgb(66,129,177)" stroke="rgb(66,129,177)" stroke-width="1" opacity="1" d="M 207.5 35 L 215 35.5 L 207.5 36 L 207.5 35 Z " /><path fill="rgb(66,129,177)" stroke="rgb(66,129,177)" stroke-width="1" opacity="1" d="M 258.5 36 L 261 36.5 L 258.5 37 L 258.5 36 Z " /><path fill="rgb(66,129,177)" stroke="rgb(66,129,177)" stroke-width="1" opacity="1" d="M 309.5 36 L 317.5 36 L 319 37.5 L 318.5 46 L 318 37 L 309 37 L 309 52.5 L 308 52.5 L 308 37.5 L 309.5 36 Z " /><path fill="rgb(66,129,177)" stroke="rgb(66,129,177)" stroke-width="1" opacity="1" d="M 331.5 36 L 349 36.5 L 331 37 L 330.5 40 L 330 37.5 L 331.5 36 Z " /><path fill="rgb(66,129,177)" stroke="rgb(66,129,177)" stroke-width="1" opacity="1" d="M 281.5 37 L 282 54.5 L 281 54.5 L 281.5 37 Z " /><path fill="rgb(66,129,177)" stroke="rgb(66,129,177)" stroke-width="1" opacity="1" d="M 197.5 38 L 195.5 41 L 197.5 38 Z " /><path fill="rgb(66,129,177)" stroke="rgb(66,129,177)" stroke-width="1" opacity="1" d="M 224.5 38 L 226.5 41 L 224.5 38 Z " /><path fill="rgb(66,129,177)" stroke="rgb(66,129,177)" stroke-width="1" opacity="1" d="M 269.5 39 L 271.5 42 L 269.5 39 Z " /><path fill="rgb(66,129,177)" stroke="rgb(66,129,177)" stroke-width="1" opacity="1" d="M 248.5 40 L 252 40.5 L 248 41 L 247.5 55 L 247 41.5 L 248.5 40 Z " /><path fill="rgb(66,129,177)" stroke="rgb(66,129,177)" stroke-width="1" opacity="1" d="M 364.5 40 L 365.5 42 L 364.5 40 Z " /><path fill="rgb(66,129,177)" stroke="rgb(66,129,177)" stroke-width="1" opacity="1" d="M 237.5 45 L 238 77 L 247 77 L 247 60.5 L 248 60.5 L 248 76.5 L 246.5 78 L 238.5 78 L 237 76.5 L 237.5 45 Z " /><path fill="rgb(66,129,177)" stroke="rgb(66,129,177)" stroke-width="1" opacity="1" d="M 357.5 46 L 358 66.5 L 357 66.5 L 357.5 46 Z " /><path fill="rgb(66,129,177)" stroke="rgb(66,129,177)" stroke-width="1" opacity="1" d="M 224.5 47 L 227 47.5 L 224.5 48 L 224.5 47 Z " /><path fill="rgb(66,129,177)" stroke="rgb(66,129,177)" stroke-width="1" opacity="1" d="M 367.5 50 L 368 67.5 L 367 67.5 L 367.5 50 Z " /><path fill="rgb(66,129,177)" stroke="rgb(66,129,177)" stroke-width="1" opacity="1" d="M 308.5 58 L 309 69.5 L 308 69.5 L 308.5 58 Z " /><path fill="rgb(66,129,177)" stroke="rgb(66,129,177)" stroke-width="1" opacity="1" d="M 256.5 59 L 259 59.5 L 256.5 60 L 256.5 59 Z " /><path fill="rgb(66,129,177)" stroke="rgb(66,129,177)" stroke-width="1" opacity="1" d="M 192.5 66 L 193 69.5 L 192 69.5 L 192.5 66 Z " /><path fill="rgb(66,129,177)" stroke="rgb(66,129,177)" stroke-width="1" opacity="1" d="M 365.5 72 L 364.5 74 L 365.5 72 Z " /><path fill="rgb(66,129,177)" stroke="rgb(66,129,177)" stroke-width="1" opacity="1" d="M 194.5 73 L 195.5 75 L 194.5 73 Z " /><path fill="rgb(66,129,177)" stroke="rgb(66,129,177)" stroke-width="1" opacity="1" d="M 209.5 73 L 213 73.5 L 209.5 74 L 209.5 73 Z " /><path fill="rgb(66,129,177)" stroke="rgb(66,129,177)" stroke-width="1" opacity="1" d="M 226.5 73 L 225.5 75 L 226.5 73 Z " /><path fill="rgb(66,129,177)" stroke="rgb(66,129,177)" stroke-width="1" opacity="1" d="M 340.5 73 L 348 73.5 L 340.5 74 L 340.5 73 Z " /><path fill="rgb(0,0,0)" stroke="rgb(0,0,0)" stroke-width="1" opacity="0" d="M 0 0 L 397 0 L 397 140 L 0 140 L 0 0 Z M 40 22 L 30 26 L 25 33 L 26 44 L 33 56 Q 45 69 61 78 L 108 102 L 109 102 L 71 71 L 51 50 Q 44 41 41 29 Q 42 21 40 22 Z M 67 24 L 67 25 Q 75 27 81 33 Q 85 34 86 31 Q 88 32 87 29 L 67 24 Z M 103 27 L 101 29 L 108 31 Q 113 30 111 34 L 116 34 L 122 39 L 124 39 L 132 52 L 139 57 L 142 56 L 142 51 L 138 45 L 131 37 L 125 36 L 121 32 L 114 28 L 103 27 Z M 91 33 L 88 37 L 92 36 L 98 39 Q 101 40 100 37 Q 98 32 91 33 Z M 206 34 L 197 37 L 193 42 Q 192 48 194 52 Q 202 63 218 66 L 217 71 L 215 72 L 209 72 L 209 70 L 204 64 L 191 64 Q 190 71 193 75 Q 198 83 210 85 Q 224 87 232 82 L 236 76 L 236 79 L 242 84 Q 247 83 249 85 Q 254 86 254 85 L 254 67 L 271 66 L 276 64 L 280 58 L 280 79 L 287 85 L 298 85 L 298 65 L 307 65 L 307 79 L 314 85 L 325 85 L 325 41 L 320 35 L 307 35 L 307 52 L 298 52 L 298 41 L 293 35 L 280 35 L 280 48 L 279 47 Q 275 39 267 36 L 262 35 L 236 35 L 236 68 L 235 67 Q 227 54 211 51 L 214 47 L 216 47 Q 215 50 218 49 L 220 53 L 223 54 L 235 54 L 233 45 Q 229 38 222 35 L 206 34 Z M 329 35 L 329 79 L 332 83 L 336 85 L 360 85 L 370 82 L 373 79 L 375 72 L 375 53 Q 374 45 369 42 Q 366 43 367 40 L 359 36 L 329 35 Z M 88 39 L 91 43 L 90 48 L 84 46 L 85 41 Q 82 40 81 43 L 74 43 L 67 51 L 72 51 L 73 56 L 72 61 L 73 68 L 80 72 L 82 76 L 86 78 L 94 78 L 95 77 L 101 81 L 104 80 L 105 88 Q 108 92 116 93 L 118 97 L 120 106 Q 119 110 123 108 L 124 104 L 128 100 L 133 90 L 135 82 L 135 75 L 132 72 L 129 73 L 119 71 L 107 73 L 103 77 L 94 72 L 91 73 L 88 73 L 88 68 L 93 65 L 97 66 L 96 64 L 97 55 L 100 47 Q 100 43 98 42 L 93 43 L 92 41 Q 93 37 88 39 Z M 146 65 L 145 82 L 141 91 L 146 102 L 146 111 Q 144 112 147 113 Q 159 114 166 109 L 171 103 L 170 91 L 161 77 L 151 66 L 146 65 Z M 104 67 Q 103 72 107 70 Q 109 66 104 67 Z M 97 68 L 97 70 L 103 70 L 103 68 L 97 68 Z M 291 92 L 288 93 Q 289 97 287 98 L 282 97 L 274 107 L 271 100 Q 272 95 267 97 L 265 97 Q 260 96 259 98 L 254 97 L 251 103 L 247 97 L 237 98 Q 230 100 232 111 L 236 113 Q 242 114 246 112 L 250 106 L 249 108 Q 247 116 254 113 L 256 104 L 265 100 L 266 102 L 268 112 L 272 114 L 275 113 L 283 103 L 286 101 L 283 110 Q 281 115 288 113 L 291 105 L 291 111 L 295 113 Q 302 115 306 112 L 308 108 Q 302 107 300 110 L 296 109 L 295 107 L 300 101 L 310 103 L 309 106 Q 308 112 313 113 Q 320 115 324 112 L 328 104 L 327 100 L 324 97 Q 313 95 311 102 L 310 100 L 307 97 Q 298 96 295 99 L 292 101 L 293 94 L 291 92 Z M 61 97 L 38 103 Q 33 104 34 110 L 38 112 L 54 115 L 86 115 Q 87 113 92 114 L 93 111 Q 78 108 72 97 L 61 97 Z M 219 97 L 216 98 Q 212 99 213 105 L 224 109 L 221 110 L 216 107 Q 212 106 211 109 Q 210 112 214 113 L 226 113 L 231 109 L 230 104 L 228 104 L 230 103 Q 232 102 231 98 Q 227 96 219 97 Z M 335 97 L 332 98 Q 328 99 329 105 L 340 109 L 337 110 L 332 107 L 327 107 L 327 112 L 330 113 L 342 113 L 347 109 L 346 104 L 336 102 L 336 101 L 341 101 L 346 103 L 347 100 Q 344 95 335 97 Z " /><path fill="rgb(0,0,0)" stroke="rgb(0,0,0)" stroke-width="1" opacity="0" d="M 255 48 L 262 48 L 262 50.5 Q 259.7 54.4 254 54 L 255 48 Z " /><path fill="rgb(0,0,0)" stroke="rgb(0,0,0)" stroke-width="1" opacity="0" d="M 347 48 L 356 48 L 356 68.5 Q 353.5 72.7 347 72 L 347 48 Z " /><path fill="rgb(0,0,0)" stroke="rgb(0,0,0)" stroke-width="1" opacity="0" d="M 242.5 100 L 245 101.5 L 239.5 102 L 239.5 101 L 242.5 100 Z " /><path fill="rgb(0,0,0)" stroke="rgb(0,0,0)" stroke-width="1" opacity="0" d="M 319.5 100 L 322 101.5 L 317.5 102 L 317.5 101 L 319.5 100 Z " /><path fill="rgb(0,0,0)" stroke="rgb(0,0,0)" stroke-width="1" opacity="0" d="M 219.5 101 Q 224.9 100.1 227 102.5 L 221.5 103 L 219.5 101 Z " /><path fill="rgb(0,0,0)" stroke="rgb(0,0,0)" stroke-width="1" opacity="0" d="M 237.5 107 L 244 107.5 Q 243 110 238.5 109 L 237.5 107 Z " /><path fill="rgb(0,0,0)" stroke="rgb(0,0,0)" stroke-width="1" opacity="0" d="M 314.5 107 L 321 107.5 Q 320 110 315.5 109 L 314.5 107 Z " /><path fill="rgb(0,84,149)" stroke="rgb(0,84,149)" stroke-width="1" opacity="0.996078431372549" d="M 102.5 28 L 109.5 28 L 120 31 L 122.5 36 Q 132.4 36.6 136 43.5 L 141 50.5 L 141 54.5 L 138.5 56 L 133 51.5 L 124.5 38 Q 120.1 39.5 121 36.5 L 113 33 Q 114.3 30 110.5 31 Q 108.2 28.3 102.5 29 L 102.5 28 Z " /><path fill="rgb(0,84,149)" stroke="rgb(0,84,149)" stroke-width="1" opacity="0.996078431372549" d="M 90.5 34 Q 97 33 99 36.5 Q 99.8 38.8 97.5 38 L 91.5 35 L 89.5 36 L 90.5 34 Z " /><path fill="rgb(0,84,149)" stroke="rgb(0,84,149)" stroke-width="1" opacity="0.996078431372549" d="M 215.5 35 L 218 35.5 L 215.5 36 L 215.5 35 Z " /><path fill="rgb(0,84,149)" stroke="rgb(0,84,149)" stroke-width="1" opacity="0.996078431372549" d="M 237.5 36 L 238 44.5 L 237 44.5 L 237.5 36 Z " /><path fill="rgb(0,84,149)" stroke="rgb(0,84,149)" stroke-width="1" opacity="0.996078431372549" d="M 291 36 L 298 41.5 L 298 53 L 291 53 L 291 36 Z " /><path fill="rgb(0,84,149)" stroke="rgb(0,84,149)" stroke-width="1" opacity="0.996078431372549" d="M 349.5 36 L 355 36.5 L 349.5 37 L 349.5 36 Z " /><path fill="rgb(0,84,149)" stroke="rgb(0,84,149)" stroke-width="1" opacity="0.996078431372549" d="M 319 37 L 321 37 L 321 39 L 323 39 Q 322.3 42.1 325 41.5 L 325 74.5 L 324 75.5 L 324 84 L 313.5 84 L 308 78.5 L 318 78 L 318 46.5 L 319 45.5 L 319 37 Z " /><path fill="rgb(0,84,149)" stroke="rgb(0,84,149)" stroke-width="1" opacity="0.996078431372549" d="M 196.5 38 L 195.5 40 L 196.5 38 Z " /><path fill="rgb(0,84,149)" stroke="rgb(0,84,149)" stroke-width="1" opacity="0.996078431372549" d="M 270.5 39 L 279 48.5 L 279 58.5 L 276.5 62 Q 268.3 67.6 254 66 L 254 84 L 242.5 84 L 237.5 78 L 248 78 L 248 60 L 259.5 60 L 267.5 58 L 272 54.5 Q 274.5 51 273 43.5 L 270.5 39 Z " /><path fill="rgb(0,84,149)" stroke="rgb(0,84,149)" stroke-width="1" opacity="0.996078431372549" d="M 90.5 40 L 91.5 42 Q 88.7 42.7 90.5 40 Z " /><path fill="rgb(0,84,149)" stroke="rgb(0,84,149)" stroke-width="1" opacity="0.996078431372549" d="M 208.5 40 Q 215 39 217 42.5 L 218 47 L 228 48 L 227 41.5 L 233 46.5 L 234 54 L 223.5 54 L 217 47.5 Q 217.8 44.9 214.5 46 L 210 49.5 L 211 51.5 L 209.5 51 L 204 47.5 Q 203 42 206.5 41 L 208.5 40 Z " /><path fill="rgb(0,84,149)" stroke="rgb(0,84,149)" stroke-width="1" opacity="0.996078431372549" d="M 248 41 L 258.5 41 L 263 44.5 L 262.5 48 L 261.5 47 L 254 47 L 254 55 L 248 55 L 248 41 Z " /><path fill="rgb(0,84,149)" stroke="rgb(0,84,149)" stroke-width="1" opacity="0.996078431372549" d="M 340 41 L 353.5 42 L 357 45.5 Q 358.1 48.8 355.5 48 Q 353.8 45.3 347.5 47 L 346 48.5 L 346 71.5 L 346.5 73 Q 340.3 73.8 340 72.5 L 340 41 Z " /><path fill="rgb(0,84,149)" stroke="rgb(0,84,149)" stroke-width="1" opacity="0.996078431372549" d="M 82.5 42 L 85 43.5 L 84 46.5 L 91 49 Q 89.8 44.4 92.5 43 Q 98.8 41.8 100 45.5 L 98 48.5 L 98 50.5 L 95 63.5 L 95.5 65 L 92.5 64 L 87 68.5 Q 86 73 88.5 74 L 92.5 72 L 95.5 75 L 98.5 75 L 102.5 78 L 108.5 73 L 120.5 72 L 127.5 74 L 132.5 73 L 134 74.5 L 134 82.5 L 132 90.5 L 124 101.5 L 123 107 L 120 107 L 120 100.5 L 118 94.5 L 115.5 92 Q 108.9 91.6 106 87.5 L 105 80.5 L 103.5 79 L 99.5 80 L 96.5 77 L 85.5 77 L 73 66.5 L 73 52.5 L 72 50 L 69 49.5 L 73.5 44 Q 80.8 45.8 82.5 42 Z " /><path fill="rgb(0,84,149)" stroke="rgb(0,84,149)" stroke-width="1" opacity="0.996078431372549" d="M 367.5 43 Q 372.6 45.4 374 51.5 L 374 73.5 L 369.5 81 L 360.5 84 L 335.5 84 L 330.5 78 L 354.5 78 L 359.5 77 L 366 72.5 L 368 67.5 L 368 45.5 L 367.5 43 Z " /><path fill="rgb(0,84,149)" stroke="rgb(0,84,149)" stroke-width="1" opacity="0.996078431372549" d="M 193.5 44 L 194 47.5 L 193 47.5 L 193.5 44 Z " /><path fill="rgb(0,84,149)" stroke="rgb(0,84,149)" stroke-width="1" opacity="0.996078431372549" d="M 194.5 50 L 198.5 54 L 211.5 59 L 218 63.5 L 219 68.5 L 218 68.5 L 216.5 65 Q 200.6 61.3 194.5 50 Z " /><path fill="rgb(0,84,149)" stroke="rgb(0,84,149)" stroke-width="1" opacity="0.996078431372549" d="M 261.5 52 L 260.5 54 L 261.5 52 Z " /><path fill="rgb(0,84,149)" stroke="rgb(0,84,149)" stroke-width="1" opacity="0.996078431372549" d="M 291 58 L 308 58 L 308 64 L 298.5 64 L 297 65.5 L 297 84 L 286.5 84 L 281.5 78 L 291 78 L 291 58 Z " /><path fill="rgb(0,84,149)" stroke="rgb(0,84,149)" stroke-width="1" opacity="0.996078431372549" d="M 228.5 61 L 235 68.5 L 235 76.5 L 231.5 81 L 224.5 84 L 208.5 84 Q 200.4 82.6 197 76.5 L 198.5 76 L 203.5 78 L 218.5 78 L 228 72.5 Q 230.3 69.3 229 62.5 L 228.5 61 Z " /><path fill="rgb(0,84,149)" stroke="rgb(0,84,149)" stroke-width="1" opacity="0.996078431372549" d="M 202 65 L 209 70.5 Q 210.3 74.3 206.5 73 L 203 70.5 L 202 65 Z " /><path fill="rgb(0,84,149)" stroke="rgb(0,84,149)" stroke-width="1" opacity="0.996078431372549" d="M 98.5 68 L 101 68.5 L 98.5 69 L 98.5 68 Z " /><path fill="rgb(0,84,149)" stroke="rgb(0,84,149)" stroke-width="1" opacity="0.996078431372549" d="M 289.5 93 Q 293.7 91.9 292 96 L 288 96 L 288 94.5 L 289.5 93 Z " /><path fill="rgb(0,84,149)" stroke="rgb(0,84,149)" stroke-width="1" opacity="0.996078431372549" d="M 218.5 98 L 228.5 98 L 231 100.5 L 227.5 102 Q 225.5 99 219.5 100 L 218 103 L 227.5 104 L 230 106.5 Q 230.5 110.5 227.5 111 L 217.5 113 L 212 110.5 Q 210.8 105.9 216 108 L 216.5 110 L 223.5 110 L 225 107 L 214 105 L 213 102.5 L 214 100 L 218.5 98 Z " /><path fill="rgb(0,84,149)" stroke="rgb(0,84,149)" stroke-width="1" opacity="0.996078431372549" d="M 238.5 98 Q 247 96 249 100.5 L 249 106 L 236.5 106 L 236 108.5 Q 237.3 111.3 242.5 110 Q 243.6 107.3 247 108 L 245.5 111 L 238.5 113 L 233 111 L 232 106.5 L 236.5 99 L 238.5 98 Z M 240 100 L 238 103 L 246 103 L 246 102 Q 245 99 240 100 Z " /><path fill="rgb(0,84,149)" stroke="rgb(0,84,149)" stroke-width="1" opacity="0.996078431372549" d="M 253.5 98 L 258.5 99 L 264 98 L 262.5 101 Q 257.3 99.8 256 102.5 L 254 110.5 L 251.5 113 L 249 111.5 L 252 99.5 L 253.5 98 Z " /><path fill="rgb(0,84,149)" stroke="rgb(0,84,149)" stroke-width="1" opacity="0.996078431372549" d="M 266 98 Q 269.8 97 271 99.5 L 272 106.5 L 273.5 108 L 281.5 98 Q 285.9 96.5 285 99.5 L 273.5 113 Q 269.8 113.8 269 111.5 L 266 98 Z " /><path fill="rgb(0,84,149)" stroke="rgb(0,84,149)" stroke-width="1" opacity="0.996078431372549" d="M 287 98 Q 292.6 95.8 291 101.5 L 289 109.5 L 286.5 113 Q 282.3 114.3 284 109.5 L 287 98 Z " /><path fill="rgb(0,84,149)" stroke="rgb(0,84,149)" stroke-width="1" opacity="0.996078431372549" d="M 298.5 98 Q 306 97 309 99 L 307.5 103 L 303.5 100 L 299.5 100 L 296 102.5 L 295 108.5 Q 296.5 111.5 302.5 110 Q 303.6 107.3 307 108 L 305.5 111 L 297.5 113 L 292 111 L 291 106.5 L 293 101 L 298.5 98 Z " /><path fill="rgb(0,84,149)" stroke="rgb(0,84,149)" stroke-width="1" opacity="0.996078431372549" d="M 316.5 98 Q 323.3 97.1 326 99 L 327 104.5 L 325.5 106 L 314 106 L 315.5 110 L 320.5 110 L 324.5 108 L 321.5 112 L 316.5 113 L 312.5 112 L 310 109.5 Q 308.9 100.9 314.5 99 L 316.5 98 Z M 318 100 L 316 103 L 323 103 L 323 102 Q 322 99 318 100 Z " /><path fill="rgb(0,84,149)" stroke="rgb(0,84,149)" stroke-width="1" opacity="0.996078431372549" d="M 334.5 98 L 344.5 98 L 346 99.5 Q 347.3 103.7 342.5 102 Q 341.3 98.8 335.5 100 L 334 103 L 343.5 104 L 346 106.5 Q 346.5 110.5 343.5 111 L 333.5 113 L 329.5 112 L 327 109.5 L 330.5 108 Q 332.3 111.7 339.5 110 L 341 107 L 333.5 106 L 329 103.5 L 331.5 99 L 334.5 98 Z " /><path fill="rgb(239,244,248)" stroke="rgb(239,244,248)" stroke-width="1" opacity="1" d="M 364.5 41 L 365.5 43 L 364.5 41 Z " /><path fill="rgb(239,244,248)" stroke="rgb(239,244,248)" stroke-width="1" opacity="1" d="M 270.5 54 L 269.5 56 L 270.5 54 Z " /><path fill="rgb(239,244,248)" stroke="rgb(239,244,248)" stroke-width="1" opacity="1" d="M 218.5 71 L 217.5 73 L 218.5 71 Z " /><path fill="rgb(239,244,248)" stroke="rgb(239,244,248)" stroke-width="1" opacity="1" d="M 226.5 72 L 224.5 75 L 226.5 72 Z " /><path fill="rgb(239,244,248)" stroke="rgb(239,244,248)" stroke-width="1" opacity="1" d="M 364.5 72 L 363.5 74 L 364.5 72 Z " /><path fill="rgb(255,255,255)" stroke="rgb(255,255,255)" stroke-width="1" opacity="1" d="M 205.5 36 Q 219.8 34.2 226 40.5 L 227 47 L 218 47 L 218 41.5 L 216.5 41 Q 214.2 38.3 208.5 39 L 204 41.5 L 203 47.5 L 206.5 51 L 223.5 58 L 228 62.5 Q 230 73 223.5 75 L 218.5 77 L 202.5 77 L 195 74 L 193 70.5 L 193 66 L 202 66 L 202 70.5 Q 205 76 215.5 74 L 219 71.5 L 220 65.5 L 215.5 60 L 198.5 53 L 195 49.5 Q 193.5 41.5 197.5 39 L 205.5 36 Z " /><path fill="rgb(255,255,255)" stroke="rgb(255,255,255)" stroke-width="1" opacity="1" d="M 238 37 L 261.5 37 L 271 41.5 Q 273.5 45 272 52.5 L 264.5 58 L 247 59 L 247 77 L 238 77 L 238 37 Z M 247 40 L 247 56 L 261 55 L 264 51 Q 265 44 263 42 L 259 40 L 247 40 Z " /><path fill="rgb(255,255,255)" stroke="rgb(255,255,255)" stroke-width="1" opacity="1" d="M 282 37 L 291 37 L 291 54 L 309 54 L 309 37 L 318 37 L 318 76.5 L 317.5 77 L 309 77 L 309 57 L 291 57 L 291 77 L 282 77 L 282 37 Z " /><path fill="rgb(255,255,255)" stroke="rgb(255,255,255)" stroke-width="1" opacity="1" d="M 331 37 L 352.5 37 L 360.5 39 L 366 43.5 L 367 45.5 L 367 68.5 L 361.5 75 L 355.5 77 L 331 77 L 331 37 Z M 340 40 L 340 74 L 355 73 L 358 70 L 358 45 L 354 41 L 340 40 Z " /><path fill="rgb(68,191,239)" stroke="rgb(68,191,239)" stroke-width="1" opacity="0.8901960784313725" d="M 39.5 22 Q 42.5 21.5 41 28.5 Q 43.8 41.2 51 49.5 L 70.5 71 L 85.5 84 L 91 87 Q 89.9 89.7 92.5 89 L 99 93 Q 97.9 95.7 100.5 95 L 109 101.5 L 107.5 102 L 60.5 78 Q 44.6 68.9 33 55.5 L 26 43.5 L 25 32.5 L 29.5 26 L 39.5 22 Z M 35 33 L 32 34 L 31 37 Q 31 47 36 52 Q 41 60 51 62 L 51 59 L 38 36 L 35 33 Z " /><path fill="rgb(143,158,170)" stroke="rgb(143,158,170)" stroke-width="1" opacity="0.9333333333333333" d="M 66.5 24 L 87 29 Q 88.1 31.7 85.5 31 Q 84.8 33.8 80.5 33 Q 75.5 27 66.5 25 L 66.5 24 Z " /><path fill="rgb(143,158,170)" stroke="rgb(143,158,170)" stroke-width="1" opacity="0.9333333333333333" d="M 238.5 36 L 258 36.5 L 238.5 37 L 238.5 36 Z " /><path fill="rgb(143,158,170)" stroke="rgb(143,158,170)" stroke-width="1" opacity="0.9333333333333333" d="M 282.5 36 L 291 36.5 L 282.5 37 L 282.5 36 Z " /><path fill="rgb(143,158,170)" stroke="rgb(143,158,170)" stroke-width="1" opacity="0.9333333333333333" d="M 252.5 40 L 257 40.5 L 252.5 41 L 252.5 40 Z " /><path fill="rgb(143,158,170)" stroke="rgb(143,158,170)" stroke-width="1" opacity="0.9333333333333333" d="M 330.5 40 L 331 76.5 L 330 76.5 L 330.5 40 Z " /><path fill="rgb(143,158,170)" stroke="rgb(143,158,170)" stroke-width="1" opacity="0.9333333333333333" d="M 291.5 53 L 308 53.5 L 291.5 54 L 291.5 53 Z " /><path fill="rgb(143,158,170)" stroke="rgb(143,158,170)" stroke-width="1" opacity="0.9333333333333333" d="M 248.5 55 L 255 55.5 L 248.5 56 L 248.5 55 Z " /><path fill="rgb(143,158,170)" stroke="rgb(143,158,170)" stroke-width="1" opacity="0.9333333333333333" d="M 281.5 55 L 282 77 L 291 77.5 L 282.5 78 L 281 76.5 L 281.5 55 Z " /><path fill="rgb(143,158,170)" stroke="rgb(143,158,170)" stroke-width="1" opacity="0.9333333333333333" d="M 248.5 59 L 256 59.5 L 248.5 60 L 248.5 59 Z " /><path fill="rgb(143,158,170)" stroke="rgb(143,158,170)" stroke-width="1" opacity="0.9333333333333333" d="M 146 65 L 150.5 66 L 161 76.5 L 170 90.5 L 171 102.5 L 165.5 109 Q 158.6 113.6 146.5 113 Q 143.8 111.8 146 110.5 L 146 101.5 L 141 90.5 L 145 81.5 L 146 65 Z " /><path fill="rgb(143,158,170)" stroke="rgb(143,158,170)" stroke-width="1" opacity="0.9333333333333333" d="M 193.5 65 L 202 65.5 L 193.5 66 L 193.5 65 Z " /><path fill="rgb(143,158,170)" stroke="rgb(143,158,170)" stroke-width="1" opacity="0.9333333333333333" d="M 308.5 70 L 309 77 L 318 77.5 L 309.5 78 Q 306.1 76.1 308.5 70 Z " /><path fill="rgb(143,158,170)" stroke="rgb(143,158,170)" stroke-width="1" opacity="0.9333333333333333" d="M 205.5 77 L 208 77.5 L 205.5 78 L 205.5 77 Z " /><path fill="rgb(143,158,170)" stroke="rgb(143,158,170)" stroke-width="1" opacity="0.9333333333333333" d="M 349.5 77 L 353 77.5 L 349.5 78 L 349.5 77 Z " /><path fill="rgb(0,83,149)" stroke="rgb(0,83,149)" stroke-width="1" opacity="0.3254901960784314" d="M 102.5 27 L 108 27.5 L 102.5 28 L 102.5 27 Z " /><path fill="rgb(0,83,149)" stroke="rgb(0,83,149)" stroke-width="1" opacity="0.3254901960784314" d="M 118.5 30 L 121 31.5 L 119.5 31 L 118.5 30 Z " /><path fill="rgb(0,83,149)" stroke="rgb(0,83,149)" stroke-width="1" opacity="0.3254901960784314" d="M 90.5 33 L 89.5 36 L 91 36.5 L 88 37 L 90.5 33 Z " /><path fill="rgb(0,83,149)" stroke="rgb(0,83,149)" stroke-width="1" opacity="0.3254901960784314" d="M 121.5 33 Q 123 36.9 129 36.5 L 124.5 37 L 121.5 33 Z " /><path fill="rgb(0,83,149)" stroke="rgb(0,83,149)" stroke-width="1" opacity="0.3254901960784314" d="M 97.5 34 L 99.5 37 L 97.5 34 Z " /><path fill="rgb(0,83,149)" stroke="rgb(0,83,149)" stroke-width="1" opacity="0.3254901960784314" d="M 205.5 34 L 217 34.5 L 205.5 35 L 205.5 34 Z " /><path fill="rgb(0,83,149)" stroke="rgb(0,83,149)" stroke-width="1" opacity="0.3254901960784314" d="M 118.5 35 L 123 38.5 L 121.5 39 L 118.5 35 Z " /><path fill="rgb(0,83,149)" stroke="rgb(0,83,149)" stroke-width="1" opacity="0.3254901960784314" d="M 236.5 35 L 237 78.5 L 242 83.5 L 236 78.5 L 235 68.5 L 236 67.5 L 236.5 35 Z " /><path fill="rgb(0,83,149)" stroke="rgb(0,83,149)" stroke-width="1" opacity="0.3254901960784314" d="M 257.5 35 L 262 35.5 L 257.5 36 L 257.5 35 Z " /><path fill="rgb(0,83,149)" stroke="rgb(0,83,149)" stroke-width="1" opacity="0.3254901960784314" d="M 280 35 L 292.5 35 L 298 40.5 L 292.5 36 L 281.5 36 L 281 36.5 L 281 78.5 L 286.5 84 L 298 84.5 L 286.5 85 L 280 78.5 L 279 48.5 L 280 47.5 L 280 35 Z " /><path fill="rgb(0,83,149)" stroke="rgb(0,83,149)" stroke-width="1" opacity="0.3254901960784314" d="M 307 35 L 319.5 35 L 325 40.5 L 319.5 36 L 308 36 L 308 51.5 L 307 51.5 L 307 35 Z " /><path fill="rgb(0,83,149)" stroke="rgb(0,83,149)" stroke-width="1" opacity="0.3254901960784314" d="M 329 35 L 352 35.5 L 330 36 L 329.5 63 L 329 35 Z " /><path fill="rgb(0,83,149)" stroke="rgb(0,83,149)" stroke-width="1" opacity="0.3254901960784314" d="M 96.5 37 L 97.5 39 L 96.5 37 Z " /><path fill="rgb(0,83,149)" stroke="rgb(0,83,149)" stroke-width="1" opacity="0.3254901960784314" d="M 130.5 37 L 132.5 40 L 130.5 37 Z " /><path fill="rgb(0,83,149)" stroke="rgb(0,83,149)" stroke-width="1" opacity="0.3254901960784314" d="M 196.5 37 L 194.5 40 L 196.5 37 Z " /><path fill="rgb(0,83,149)" stroke="rgb(0,83,149)" stroke-width="1" opacity="0.3254901960784314" d="M 225.5 37 L 232.5 45 L 225.5 37 Z " /><path fill="rgb(0,83,149)" stroke="rgb(0,83,149)" stroke-width="1" opacity="0.3254901960784314" d="M 270.5 38 L 278.5 47 L 270.5 38 Z " /><path fill="rgb(0,83,149)" stroke="rgb(0,83,149)" stroke-width="1" opacity="0.3254901960784314" d="M 87.5 39 L 89.5 42 L 87.5 39 Z " /><path fill="rgb(0,83,149)" stroke="rgb(0,83,149)" stroke-width="1" opacity="0.3254901960784314" d="M 82.5 41 L 85 41.5 L 81.5 43 L 82.5 41 Z " /><path fill="rgb(0,83,149)" stroke="rgb(0,83,149)" stroke-width="1" opacity="0.3254901960784314" d="M 92.5 41 L 99 43.5 L 97.5 43 L 92.5 42 Q 89.9 43.4 90.5 48 L 90 43.5 L 92.5 41 Z " /><path fill="rgb(0,83,149)" stroke="rgb(0,83,149)" stroke-width="1" opacity="0.3254901960784314" d="M 125.5 41 L 126.5 43 L 125.5 41 Z " /><path fill="rgb(0,83,149)" stroke="rgb(0,83,149)" stroke-width="1" opacity="0.3254901960784314" d="M 134.5 41 L 137.5 45 L 134.5 41 Z " /><path fill="rgb(0,83,149)" stroke="rgb(0,83,149)" stroke-width="1" opacity="0.3254901960784314" d="M 368.5 42 L 371.5 46 L 368.5 42 Z " /><path fill="rgb(0,83,149)" stroke="rgb(0,83,149)" stroke-width="1" opacity="0.3254901960784314" d="M 73.5 43 L 80 43.5 Q 70.6 42.6 68.5 49 L 73.5 43 Z " /><path fill="rgb(0,83,149)" stroke="rgb(0,83,149)" stroke-width="1" opacity="0.3254901960784314" d="M 127.5 44 L 128.5 46 L 127.5 44 Z " /><path fill="rgb(0,83,149)" stroke="rgb(0,83,149)" stroke-width="1" opacity="0.3254901960784314" d="M 138.5 46 L 139.5 48 L 138.5 46 Z " /><path fill="rgb(0,83,149)" stroke="rgb(0,83,149)" stroke-width="1" opacity="0.3254901960784314" d="M 216.5 46 L 218 48.5 L 216 49 L 216.5 46 Z " /><path fill="rgb(0,83,149)" stroke="rgb(0,83,149)" stroke-width="1" opacity="0.3254901960784314" d="M 86.5 47 L 89 47.5 L 86.5 48 L 86.5 47 Z " /><path fill="rgb(0,83,149)" stroke="rgb(0,83,149)" stroke-width="1" opacity="0.3254901960784314" d="M 129.5 47 L 130.5 49 L 129.5 47 Z " /><path fill="rgb(0,83,149)" stroke="rgb(0,83,149)" stroke-width="1" opacity="0.3254901960784314" d="M 212.5 47 L 211.5 49 L 212.5 47 Z " /><path fill="rgb(0,83,149)" stroke="rgb(0,83,149)" stroke-width="1" opacity="0.3254901960784314" d="M 254 47 L 262 47.5 L 255 48 L 254.5 51 L 254 47 Z " /><path fill="rgb(0,83,149)" stroke="rgb(0,83,149)" stroke-width="1" opacity="0.3254901960784314" d="M 372.5 47 L 374 49.5 L 373 49.5 L 372.5 47 Z " /><path fill="rgb(0,83,149)" stroke="rgb(0,83,149)" stroke-width="1" opacity="0.3254901960784314" d="M 356.5 48 L 357 66.5 L 356 66.5 L 356.5 48 Z " /><path fill="rgb(0,83,149)" stroke="rgb(0,83,149)" stroke-width="1" opacity="0.3254901960784314" d="M 140.5 49 L 142 51.5 L 141 51.5 L 140.5 49 Z " /><path fill="rgb(0,83,149)" stroke="rgb(0,83,149)" stroke-width="1" opacity="0.3254901960784314" d="M 234.5 49 L 235 53.5 L 234 53.5 L 234.5 49 Z " /><path fill="rgb(0,83,149)" stroke="rgb(0,83,149)" stroke-width="1" opacity="0.3254901960784314" d="M 67.5 50 L 72 50.5 L 67.5 51 L 67.5 50 Z " /><path fill="rgb(0,83,149)" stroke="rgb(0,83,149)" stroke-width="1" opacity="0.3254901960784314" d="M 132.5 51 L 136.5 56 L 132.5 51 Z " /><path fill="rgb(0,83,149)" stroke="rgb(0,83,149)" stroke-width="1" opacity="0.3254901960784314" d="M 194.5 51 L 202.5 60 L 194.5 51 Z " /><path fill="rgb(0,83,149)" stroke="rgb(0,83,149)" stroke-width="1" opacity="0.3254901960784314" d="M 261.5 51 L 260.5 53 L 261.5 51 Z " /><path fill="rgb(0,83,149)" stroke="rgb(0,83,149)" stroke-width="1" opacity="0.3254901960784314" d="M 374.5 52 L 375 71.5 L 374 71.5 L 374.5 52 Z " /><path fill="rgb(0,83,149)" stroke="rgb(0,83,149)" stroke-width="1" opacity="0.3254901960784314" d="M 224.5 56 L 225.5 58 L 224.5 56 Z " /><path fill="rgb(0,83,149)" stroke="rgb(0,83,149)" stroke-width="1" opacity="0.3254901960784314" d="M 278.5 59 L 279 60.5 L 272.5 65 L 272.5 64 L 278 60.5 L 278.5 59 Z " /><path fill="rgb(0,83,149)" stroke="rgb(0,83,149)" stroke-width="1" opacity="0.3254901960784314" d="M 72.5 60 L 73 65.5 L 72 65.5 L 72.5 60 Z " /><path fill="rgb(0,83,149)" stroke="rgb(0,83,149)" stroke-width="1" opacity="0.3254901960784314" d="M 204.5 60 L 207 61.5 L 205.5 62 L 204.5 60 Z " /><path fill="rgb(0,83,149)" stroke="rgb(0,83,149)" stroke-width="1" opacity="0.3254901960784314" d="M 96.5 64 L 97 66 L 95 65.5 L 96.5 64 Z " /><path fill="rgb(0,83,149)" stroke="rgb(0,83,149)" stroke-width="1" opacity="0.3254901960784314" d="M 191.5 64 L 192 70.5 L 191 70.5 L 191.5 64 Z " /><path fill="rgb(0,83,149)" stroke="rgb(0,83,149)" stroke-width="1" opacity="0.3254901960784314" d="M 203.5 64 L 208.5 70 L 203.5 64 Z " /><path fill="rgb(0,83,149)" stroke="rgb(0,83,149)" stroke-width="1" opacity="0.3254901960784314" d="M 298.5 64 L 306.5 64 L 308 65.5 L 308 78.5 L 313.5 84 L 325 84.5 L 313.5 85 L 307 78.5 L 307 65 L 298.5 65 L 298.5 64 Z " /><path fill="rgb(0,83,149)" stroke="rgb(0,83,149)" stroke-width="1" opacity="0.3254901960784314" d="M 91.5 65 L 89.5 68 L 91.5 65 Z " /><path fill="rgb(0,83,149)" stroke="rgb(0,83,149)" stroke-width="1" opacity="0.3254901960784314" d="M 233.5 65 L 234.5 67 L 233.5 65 Z " /><path fill="rgb(0,83,149)" stroke="rgb(0,83,149)" stroke-width="1" opacity="0.3254901960784314" d="M 268.5 65 L 271 65.5 L 268.5 66 L 268.5 65 Z " /><path fill="rgb(0,83,149)" stroke="rgb(0,83,149)" stroke-width="1" opacity="0.3254901960784314" d="M 254.5 66 L 264 66.5 L 254.5 67 L 254.5 66 Z " /><path fill="rgb(0,83,149)" stroke="rgb(0,83,149)" stroke-width="1" opacity="0.3254901960784314" d="M 75.5 69 L 76.5 71 L 75.5 69 Z " /><path fill="rgb(0,83,149)" stroke="rgb(0,83,149)" stroke-width="1" opacity="0.3254901960784314" d="M 87.5 69 L 88 73 L 90 73.5 L 88.5 74 Q 85.8 72.8 87.5 69 Z " /><path fill="rgb(0,83,149)" stroke="rgb(0,83,149)" stroke-width="1" opacity="0.3254901960784314" d="M 104.5 69 L 107 69.5 L 104.5 70 L 104.5 69 Z " /><path fill="rgb(0,83,149)" stroke="rgb(0,83,149)" stroke-width="1" opacity="0.3254901960784314" d="M 355.5 69 L 354.5 71 L 355.5 69 Z " /><path fill="rgb(0,83,149)" stroke="rgb(0,83,149)" stroke-width="1" opacity="0.3254901960784314" d="M 115.5 71 L 119 71.5 L 115.5 72 L 115.5 71 Z " /><path fill="rgb(0,83,149)" stroke="rgb(0,83,149)" stroke-width="1" opacity="0.3254901960784314" d="M 80.5 72 L 81.5 74 L 80.5 72 Z " /><path fill="rgb(0,83,149)" stroke="rgb(0,83,149)" stroke-width="1" opacity="0.3254901960784314" d="M 129.5 72 L 132 72.5 L 129.5 73 L 129.5 72 Z " /><path fill="rgb(0,83,149)" stroke="rgb(0,83,149)" stroke-width="1" opacity="0.3254901960784314" d="M 209.5 72 L 213 72.5 L 209.5 73 L 209.5 72 Z " /><path fill="rgb(0,83,149)" stroke="rgb(0,83,149)" stroke-width="1" opacity="0.3254901960784314" d="M 97.5 74 L 102 77.5 L 98.5 75 L 97.5 74 Z " /><path fill="rgb(0,83,149)" stroke="rgb(0,83,149)" stroke-width="1" opacity="0.3254901960784314" d="M 134.5 74 L 135 81.5 L 134 81.5 L 134.5 74 Z " /><path fill="rgb(0,83,149)" stroke="rgb(0,83,149)" stroke-width="1" opacity="0.3254901960784314" d="M 193.5 74 L 199.5 81 L 193.5 74 Z " /><path fill="rgb(0,83,149)" stroke="rgb(0,83,149)" stroke-width="1" opacity="0.3254901960784314" d="M 104.5 75 L 103.5 77 L 104.5 75 Z " /><path fill="rgb(0,83,149)" stroke="rgb(0,83,149)" stroke-width="1" opacity="0.3254901960784314" d="M 84.5 76 L 87 77.5 L 85.5 78 L 84.5 76 Z " /><path fill="rgb(0,83,149)" stroke="rgb(0,83,149)" stroke-width="1" opacity="0.3254901960784314" d="M 96.5 77 L 98.5 80 L 96.5 77 Z " /><path fill="rgb(0,83,149)" stroke="rgb(0,83,149)" stroke-width="1" opacity="0.3254901960784314" d="M 234.5 77 L 235 78.5 L 231 81.5 L 234.5 77 Z " /><path fill="rgb(0,83,149)" stroke="rgb(0,83,149)" stroke-width="1" opacity="0.3254901960784314" d="M 372.5 78 L 369.5 82 L 366.5 83 L 366.5 82 L 372.5 78 Z " /><path fill="rgb(0,83,149)" stroke="rgb(0,83,149)" stroke-width="1" opacity="0.3254901960784314" d="M 104.5 80 L 105 83.5 L 104 83.5 L 104.5 80 Z " /><path fill="rgb(0,83,149)" stroke="rgb(0,83,149)" stroke-width="1" opacity="0.3254901960784314" d="M 201.5 81 L 202.5 83 L 201.5 81 Z " /><path fill="rgb(0,83,149)" stroke="rgb(0,83,149)" stroke-width="1" opacity="0.3254901960784314" d="M 332.5 82 L 333.5 84 L 332.5 82 Z " /><path fill="rgb(0,83,149)" stroke="rgb(0,83,149)" stroke-width="1" opacity="0.3254901960784314" d="M 209.5 84 L 223 84.5 L 209.5 85 L 209.5 84 Z " /><path fill="rgb(0,83,149)" stroke="rgb(0,83,149)" stroke-width="1" opacity="0.3254901960784314" d="M 248.5 84 L 254 84.5 L 248.5 85 L 248.5 84 Z " /><path fill="rgb(0,83,149)" stroke="rgb(0,83,149)" stroke-width="1" opacity="0.3254901960784314" d="M 335.5 84 L 360 84.5 L 335.5 85 L 335.5 84 Z " /><path fill="rgb(0,83,149)" stroke="rgb(0,83,149)" stroke-width="1" opacity="0.3254901960784314" d="M 105.5 87 L 107.5 90 L 105.5 87 Z " /><path fill="rgb(0,83,149)" stroke="rgb(0,83,149)" stroke-width="1" opacity="0.3254901960784314" d="M 290.5 92 L 293 93.5 L 291.5 98 L 288.5 97 L 287 100 L 284.5 101 L 285.5 98 Q 279.5 97 278.5 101 L 281.5 97 L 286.5 98 Q 287.8 95 292 96 Q 293.5 92.3 290.5 93 L 290.5 92 Z " /><path fill="rgb(0,83,149)" stroke="rgb(0,83,149)" stroke-width="1" opacity="0.3254901960784314" d="M 218.5 97 L 228 97.5 L 218.5 98 L 218.5 97 Z " /><path fill="rgb(0,83,149)" stroke="rgb(0,83,149)" stroke-width="1" opacity="0.3254901960784314" d="M 253.5 97 Q 257.3 96.3 258 98.5 L 256.5 98 L 252.5 99 L 253.5 97 Z " /><path fill="rgb(0,83,149)" stroke="rgb(0,83,149)" stroke-width="1" opacity="0.3254901960784314" d="M 259.5 97 L 263 97.5 L 259.5 98 L 259.5 97 Z " /><path fill="rgb(0,83,149)" stroke="rgb(0,83,149)" stroke-width="1" opacity="0.3254901960784314" d="M 264.5 97 L 266.5 97 L 271 97.5 L 266 98 L 265.5 101 Q 263 100 264.5 97 Z " /><path fill="rgb(0,83,149)" stroke="rgb(0,83,149)" stroke-width="1" opacity="0.3254901960784314" d="M 298.5 97 L 302 97.5 L 298.5 98 L 298.5 97 Z " /><path fill="rgb(0,83,149)" stroke="rgb(0,83,149)" stroke-width="1" opacity="0.3254901960784314" d="M 304.5 97 L 307 97.5 L 304.5 98 L 304.5 97 Z " /><path fill="rgb(0,83,149)" stroke="rgb(0,83,149)" stroke-width="1" opacity="0.3254901960784314" d="M 334.5 97 L 344 97.5 L 334.5 98 L 334.5 97 Z " /><path fill="rgb(0,83,149)" stroke="rgb(0,83,149)" stroke-width="1" opacity="0.3254901960784314" d="M 127.5 98 L 128 99.5 L 124 102.5 L 127.5 98 Z " /><path fill="rgb(0,83,149)" stroke="rgb(0,83,149)" stroke-width="1" opacity="0.3254901960784314" d="M 215.5 98 L 217 98.5 L 213.5 101 L 215.5 98 Z " /><path fill="rgb(0,83,149)" stroke="rgb(0,83,149)" stroke-width="1" opacity="0.3254901960784314" d="M 236.5 98 L 233.5 102 L 236.5 98 Z " /><path fill="rgb(0,83,149)" stroke="rgb(0,83,149)" stroke-width="1" opacity="0.3254901960784314" d="M 308.5 98 L 310.5 102 L 312 101.5 L 309 103 L 308.5 98 Z " /><path fill="rgb(0,83,149)" stroke="rgb(0,83,149)" stroke-width="1" opacity="0.3254901960784314" d="M 325.5 98 L 326.5 100 L 325.5 98 Z " /><path fill="rgb(0,83,149)" stroke="rgb(0,83,149)" stroke-width="1" opacity="0.3254901960784314" d="M 331.5 98 L 333 98.5 L 329.5 101 L 331.5 98 Z " /><path fill="rgb(0,83,149)" stroke="rgb(0,83,149)" stroke-width="1" opacity="0.3254901960784314" d="M 294.5 99 L 292.5 102 Q 290.3 102.8 291 100.5 Q 292.8 102.1 294.5 99 Z " /><path fill="rgb(0,83,149)" stroke="rgb(0,83,149)" stroke-width="1" opacity="0.3254901960784314" d="M 220.5 100 L 224 100.5 L 220.5 101 L 220.5 100 Z " /><path fill="rgb(0,83,149)" stroke="rgb(0,83,149)" stroke-width="1" opacity="0.3254901960784314" d="M 300.5 100 L 303 100.5 L 300.5 101 L 300.5 100 Z " /><path fill="rgb(0,83,149)" stroke="rgb(0,83,149)" stroke-width="1" opacity="0.3254901960784314" d="M 321.5 100 L 323 103 L 315 102.5 Q 316.3 99.8 317.5 102 L 322 101.5 L 321.5 100 Z " /><path fill="rgb(0,83,149)" stroke="rgb(0,83,149)" stroke-width="1" opacity="0.3254901960784314" d="M 336.5 100 L 340 100.5 L 336.5 101 L 336.5 100 Z " /><path fill="rgb(0,83,149)" stroke="rgb(0,83,149)" stroke-width="1" opacity="0.3254901960784314" d="M 119.5 101 L 120 104.5 L 119 104.5 L 119.5 101 Z " /><path fill="rgb(0,83,149)" stroke="rgb(0,83,149)" stroke-width="1" opacity="0.3254901960784314" d="M 218.5 101 L 221 102.5 L 219.5 103 L 218.5 101 Z " /><path fill="rgb(0,83,149)" stroke="rgb(0,83,149)" stroke-width="1" opacity="0.3254901960784314" d="M 298.5 101 L 296.5 104 L 298.5 101 Z " /><path fill="rgb(0,83,149)" stroke="rgb(0,83,149)" stroke-width="1" opacity="0.3254901960784314" d="M 304.5 101 L 305.5 103 L 304.5 101 Z " /><path fill="rgb(0,83,149)" stroke="rgb(0,83,149)" stroke-width="1" opacity="0.3254901960784314" d="M 334.5 101 L 337 102.5 L 335.5 103 L 334.5 101 Z " /><path fill="rgb(0,83,149)" stroke="rgb(0,83,149)" stroke-width="1" opacity="0.3254901960784314" d="M 227.5 102 L 230 102.5 L 225.5 104 L 225.5 103 L 227.5 102 Z " /><path fill="rgb(0,83,149)" stroke="rgb(0,83,149)" stroke-width="1" opacity="0.3254901960784314" d="M 238.5 102 L 245 102.5 L 238.5 103 L 238.5 102 Z " /><path fill="rgb(0,83,149)" stroke="rgb(0,83,149)" stroke-width="1" opacity="0.3254901960784314" d="M 277.5 102 L 274.5 106 L 277.5 102 Z " /><path fill="rgb(0,83,149)" stroke="rgb(0,83,149)" stroke-width="1" opacity="0.3254901960784314" d="M 343.5 102 L 346 102.5 L 341.5 104 L 341.5 103 L 343.5 102 Z " /><path fill="rgb(0,83,149)" stroke="rgb(0,83,149)" stroke-width="1" opacity="0.3254901960784314" d="M 250.5 103 L 251 104.5 Q 247.5 106 250 107.5 L 249.5 109 L 248.5 107 L 243.5 109 L 243.5 107 L 237 107.5 L 242 109.5 L 238.5 110 Q 234 108 237.5 106 L 248.5 106 L 249 104.5 L 250.5 103 Z " /><path fill="rgb(0,83,149)" stroke="rgb(0,83,149)" stroke-width="1" opacity="0.3254901960784314" d="M 282.5 103 L 279.5 107 L 282.5 103 Z " /><path fill="rgb(0,83,149)" stroke="rgb(0,83,149)" stroke-width="1" opacity="0.3254901960784314" d="M 291.5 103 L 290.5 105 L 291.5 103 Z " /><path fill="rgb(0,83,149)" stroke="rgb(0,83,149)" stroke-width="1" opacity="0.3254901960784314" d="M 213.5 104 L 216 105.5 L 214.5 106 L 213.5 104 Z " /><path fill="rgb(0,83,149)" stroke="rgb(0,83,149)" stroke-width="1" opacity="0.3254901960784314" d="M 329.5 104 L 332 105.5 L 330.5 106 L 329.5 104 Z " /><path fill="rgb(0,83,149)" stroke="rgb(0,83,149)" stroke-width="1" opacity="0.3254901960784314" d="M 309.5 105 Q 309.1 111 313 112.5 L 309 109.5 L 309.5 105 Z " /><path fill="rgb(0,83,149)" stroke="rgb(0,83,149)" stroke-width="1" opacity="0.3254901960784314" d="M 218.5 106 L 221 106.5 L 218.5 107 L 218.5 106 Z " /><path fill="rgb(0,83,149)" stroke="rgb(0,83,149)" stroke-width="1" opacity="0.3254901960784314" d="M 230.5 106 L 231 108.5 L 227 111.5 L 230.5 106 Z " /><path fill="rgb(0,83,149)" stroke="rgb(0,83,149)" stroke-width="1" opacity="0.3254901960784314" d="M 314.5 106 L 325.5 106 L 326 108.5 L 324.5 108 L 320.5 109 L 320.5 107 L 314.5 107 L 314.5 106 Z " /><path fill="rgb(0,83,149)" stroke="rgb(0,83,149)" stroke-width="1" opacity="0.3254901960784314" d="M 346.5 106 L 347 108.5 L 343 111.5 L 346.5 106 Z " /><path fill="rgb(0,83,149)" stroke="rgb(0,83,149)" stroke-width="1" opacity="0.3254901960784314" d="M 120.5 107 L 123 107.5 L 120.5 108 L 120.5 107 Z " /><path fill="rgb(0,83,149)" stroke="rgb(0,83,149)" stroke-width="1" opacity="0.3254901960784314" d="M 212.5 107 Q 217.6 106.4 219 109.5 L 217.5 110 Q 216.8 107.3 212.5 108 L 212.5 107 Z " /><path fill="rgb(0,83,149)" stroke="rgb(0,83,149)" stroke-width="1" opacity="0.3254901960784314" d="M 223.5 107 L 224.5 109 L 223.5 107 Z " /><path fill="rgb(0,83,149)" stroke="rgb(0,83,149)" stroke-width="1" opacity="0.3254901960784314" d="M 327.5 107 Q 333.3 106.2 335 109.5 L 333.5 110 Q 332.5 107 327.5 108 L 327.5 107 Z " /><path fill="rgb(0,83,149)" stroke="rgb(0,83,149)" stroke-width="1" opacity="0.3254901960784314" d="M 339.5 107 L 340.5 109 L 339.5 107 Z " /><path fill="rgb(0,83,149)" stroke="rgb(0,83,149)" stroke-width="1" opacity="0.3254901960784314" d="M 278.5 108 L 274.5 113 L 278.5 108 Z " /><path fill="rgb(0,83,149)" stroke="rgb(0,83,149)" stroke-width="1" opacity="0.3254901960784314" d="M 307.5 108 L 308 109.5 L 305 111.5 L 307.5 108 Z " /><path fill="rgb(0,83,149)" stroke="rgb(0,83,149)" stroke-width="1" opacity="0.3254901960784314" d="M 314.5 108 L 319 109.5 L 315.5 110 L 314.5 108 Z " /><path fill="rgb(0,83,149)" stroke="rgb(0,83,149)" stroke-width="1" opacity="0.3254901960784314" d="M 247.5 109 L 245.5 112 L 247.5 109 Z " /><path fill="rgb(0,83,149)" stroke="rgb(0,83,149)" stroke-width="1" opacity="0.3254901960784314" d="M 232.5 110 L 233.5 112 L 232.5 110 Z " /><path fill="rgb(0,83,149)" stroke="rgb(0,83,149)" stroke-width="1" opacity="0.3254901960784314" d="M 268.5 110 L 270 112.5 L 268 111.5 L 268.5 110 Z " /><path fill="rgb(0,83,149)" stroke="rgb(0,83,149)" stroke-width="1" opacity="0.3254901960784314" d="M 291.5 110 L 292.5 112 L 291.5 110 Z " /><path fill="rgb(0,83,149)" stroke="rgb(0,83,149)" stroke-width="1" opacity="0.3254901960784314" d="M 324.5 110 L 323.5 112 L 324.5 110 Z " /><path fill="rgb(203,223,233)" stroke="rgb(203,223,233)" stroke-width="1" opacity="0.9490196078431372" d="M 34.5 33 L 38 35.5 L 51 58.5 L 51 62 Q 41.1 59.7 36 51.5 Q 31 46.5 31 36.5 L 32 34 L 34.5 33 Z " /><path fill="rgb(203,223,233)" stroke="rgb(203,223,233)" stroke-width="1" opacity="0.9490196078431372" d="M 209.5 39 L 213 39.5 L 209.5 40 L 209.5 39 Z " /><path fill="rgb(203,223,233)" stroke="rgb(203,223,233)" stroke-width="1" opacity="0.9490196078431372" d="M 340.5 40 L 346 40.5 L 340.5 41 L 340.5 40 Z " /><path fill="rgb(203,223,233)" stroke="rgb(203,223,233)" stroke-width="1" opacity="0.9490196078431372" d="M 194.5 44 L 195 47.5 L 194 47.5 L 194.5 44 Z " /><path fill="rgb(203,223,233)" stroke="rgb(203,223,233)" stroke-width="1" opacity="0.9490196078431372" d="M 263.5 45 L 264 49.5 L 263 49.5 L 263.5 45 Z " /><path fill="rgb(203,223,233)" stroke="rgb(203,223,233)" stroke-width="1" opacity="0.9490196078431372" d="M 272.5 45 L 273 50.5 L 272 50.5 L 272.5 45 Z " /><path fill="rgb(203,223,233)" stroke="rgb(203,223,233)" stroke-width="1" opacity="0.9490196078431372" d="M 291.5 57 L 309 57.5 L 291.5 58 L 291.5 57 Z " /><path fill="rgb(203,223,233)" stroke="rgb(203,223,233)" stroke-width="1" opacity="0.9490196078431372" d="M 224.5 58 L 226.5 61 L 224.5 58 Z " /><path fill="rgb(203,223,233)" stroke="rgb(203,223,233)" stroke-width="1" opacity="0.9490196078431372" d="M 228.5 65 L 229 67.5 L 228 67.5 L 228.5 65 Z " /><path fill="rgb(203,223,233)" stroke="rgb(203,223,233)" stroke-width="1" opacity="0.9490196078431372" d="M 219.5 66 L 220 68.5 L 219 68.5 L 219.5 66 Z " /><path fill="rgb(203,223,233)" stroke="rgb(203,223,233)" stroke-width="1" opacity="0.9490196078431372" d="M 356.5 70 L 355.5 72 L 356.5 70 Z " /><path fill="rgb(203,223,233)" stroke="rgb(203,223,233)" stroke-width="1" opacity="0.9490196078431372" d="M 208.5 77 L 214 77.5 L 208.5 78 L 208.5 77 Z " /><path fill="rgb(203,223,233)" stroke="rgb(203,223,233)" stroke-width="1" opacity="0.9490196078431372" d="M 331.5 77 L 349 77.5 L 331.5 78 L 331.5 77 Z " /><path fill="rgb(203,223,233)" stroke="rgb(203,223,233)" stroke-width="1" opacity="0.9490196078431372" d="M 60.5 97 L 71.5 97 Q 78.5 108.5 93 111 L 91.5 114 Q 86.8 112.7 85.5 115 L 53.5 115 L 37.5 112 L 34 109.5 Q 33.3 103.8 37.5 103 L 60.5 97 Z " /><path fill="rgb(22,100,159)" stroke="rgb(22,100,159)" stroke-width="1" opacity="1" d="M 355.5 43 L 356.5 45 L 355.5 43 Z " /><path fill="rgb(22,100,159)" stroke="rgb(22,100,159)" stroke-width="1" opacity="1" d="M 225.5 58 L 227.5 61 L 225.5 58 Z " /><path fill="rgb(0,83,150)" stroke="rgb(0,83,150)" stroke-width="1" opacity="0.7529411764705882" d="M 112.5 31 L 113 33 L 115 33.5 L 111.5 34 L 112 32.5 L 112.5 31 Z " /><path fill="rgb(0,83,150)" stroke="rgb(0,83,150)" stroke-width="1" opacity="0.7529411764705882" d="M 91.5 33 L 95 33.5 L 91.5 34 L 91.5 33 Z " /><path fill="rgb(0,83,150)" stroke="rgb(0,83,150)" stroke-width="1" opacity="0.7529411764705882" d="M 121.5 34 L 122.5 36 L 121.5 34 Z " /><path fill="rgb(0,83,150)" stroke="rgb(0,83,150)" stroke-width="1" opacity="0.7529411764705882" d="M 119.5 35 L 120.5 37 L 119.5 35 Z " /><path fill="rgb(0,83,150)" stroke="rgb(0,83,150)" stroke-width="1" opacity="0.7529411764705882" d="M 237.5 35 L 257 35.5 L 237.5 36 L 237.5 35 Z " /><path fill="rgb(0,83,150)" stroke="rgb(0,83,150)" stroke-width="1" opacity="0.7529411764705882" d="M 99.5 37 L 98.5 39 L 99.5 37 Z " /><path fill="rgb(0,83,150)" stroke="rgb(0,83,150)" stroke-width="1" opacity="0.7529411764705882" d="M 224.5 37 L 232.5 46 L 224.5 37 Z " /><path fill="rgb(0,83,150)" stroke="rgb(0,83,150)" stroke-width="1" opacity="0.7529411764705882" d="M 123.5 38 L 126 39.5 L 125.5 41 L 125 39 L 123.5 38 Z " /><path fill="rgb(0,83,150)" stroke="rgb(0,83,150)" stroke-width="1" opacity="0.7529411764705882" d="M 88.5 39 L 92 40.5 L 89.5 41 L 88.5 39 Z " /><path fill="rgb(0,83,150)" stroke="rgb(0,83,150)" stroke-width="1" opacity="0.7529411764705882" d="M 364.5 39 L 371.5 47 L 364.5 39 Z " /><path fill="rgb(0,83,150)" stroke="rgb(0,83,150)" stroke-width="1" opacity="0.7529411764705882" d="M 136.5 44 L 137.5 46 L 136.5 44 Z " /><path fill="rgb(0,83,150)" stroke="rgb(0,83,150)" stroke-width="1" opacity="0.7529411764705882" d="M 70.5 47 L 68.5 50 L 70.5 47 Z " /><path fill="rgb(0,83,150)" stroke="rgb(0,83,150)" stroke-width="1" opacity="0.7529411764705882" d="M 347.5 47 L 355 47.5 L 347 48 L 346.5 72 L 346 48.5 L 347.5 47 Z " /><path fill="rgb(0,83,150)" stroke="rgb(0,83,150)" stroke-width="1" opacity="0.7529411764705882" d="M 131.5 49 L 132.5 51 L 131.5 49 Z " /><path fill="rgb(0,83,150)" stroke="rgb(0,83,150)" stroke-width="1" opacity="0.7529411764705882" d="M 141.5 52 L 142 54.5 L 140 55.5 L 141.5 52 Z " /><path fill="rgb(0,83,150)" stroke="rgb(0,83,150)" stroke-width="1" opacity="0.7529411764705882" d="M 298.5 52 L 307 52.5 L 298.5 53 L 298.5 52 Z " /><path fill="rgb(0,83,150)" stroke="rgb(0,83,150)" stroke-width="1" opacity="0.7529411764705882" d="M 96.5 55 L 97 58.5 L 96 58.5 L 96.5 55 Z " /><path fill="rgb(0,83,150)" stroke="rgb(0,83,150)" stroke-width="1" opacity="0.7529411764705882" d="M 226.5 58 L 232.5 65 L 226.5 58 Z " /><path fill="rgb(0,83,150)" stroke="rgb(0,83,150)" stroke-width="1" opacity="0.7529411764705882" d="M 329.5 63 L 330 78.5 L 335 83.5 L 329 78.5 L 329.5 63 Z " /><path fill="rgb(0,83,150)" stroke="rgb(0,83,150)" stroke-width="1" opacity="0.7529411764705882" d="M 192.5 64 L 203 64.5 L 192.5 65 L 192.5 64 Z " /><path fill="rgb(0,83,150)" stroke="rgb(0,83,150)" stroke-width="1" opacity="0.7529411764705882" d="M 297.5 65 L 298 83.5 L 297 83.5 L 297.5 65 Z " /><path fill="rgb(0,83,150)" stroke="rgb(0,83,150)" stroke-width="1" opacity="0.7529411764705882" d="M 88.5 67 L 87.5 69 L 88.5 67 Z " /><path fill="rgb(0,83,150)" stroke="rgb(0,83,150)" stroke-width="1" opacity="0.7529411764705882" d="M 105.5 67 L 106.5 69 L 104 68.5 L 105.5 67 Z " /><path fill="rgb(0,83,150)" stroke="rgb(0,83,150)" stroke-width="1" opacity="0.7529411764705882" d="M 101.5 68 L 102 70 L 99 69.5 L 101.5 68 Z " /><path fill="rgb(0,83,150)" stroke="rgb(0,83,150)" stroke-width="1" opacity="0.7529411764705882" d="M 217.5 70 L 216.5 72 L 217.5 70 Z " /><path fill="rgb(0,83,150)" stroke="rgb(0,83,150)" stroke-width="1" opacity="0.7529411764705882" d="M 193.5 73 L 200.5 81 L 193.5 73 Z " /><path fill="rgb(0,83,150)" stroke="rgb(0,83,150)" stroke-width="1" opacity="0.7529411764705882" d="M 82.5 74 L 83.5 76 L 82.5 74 Z " /><path fill="rgb(0,83,150)" stroke="rgb(0,83,150)" stroke-width="1" opacity="0.7529411764705882" d="M 324.5 75 L 325 83.5 L 324 83.5 L 324.5 75 Z " /><path fill="rgb(0,83,150)" stroke="rgb(0,83,150)" stroke-width="1" opacity="0.7529411764705882" d="M 87.5 77 L 92 77.5 L 87.5 78 L 87.5 77 Z " /><path fill="rgb(0,83,150)" stroke="rgb(0,83,150)" stroke-width="1" opacity="0.7529411764705882" d="M 115.5 92 L 117.5 95 L 115.5 92 Z " /><path fill="rgb(0,83,150)" stroke="rgb(0,83,150)" stroke-width="1" opacity="0.7529411764705882" d="M 129.5 94 L 128.5 96 L 129.5 94 Z " /><path fill="rgb(0,83,150)" stroke="rgb(0,83,150)" stroke-width="1" opacity="0.7529411764705882" d="M 241.5 97 L 245 97.5 L 241.5 98 L 241.5 97 Z " /><path fill="rgb(0,83,150)" stroke="rgb(0,83,150)" stroke-width="1" opacity="0.7529411764705882" d="M 288.5 97 L 292 98.5 L 291.5 100 L 291 98 Q 287.7 98.7 288.5 97 Z " /><path fill="rgb(0,83,150)" stroke="rgb(0,83,150)" stroke-width="1" opacity="0.7529411764705882" d="M 318.5 97 L 322 97.5 L 318.5 98 L 318.5 97 Z " /><path fill="rgb(0,83,150)" stroke="rgb(0,83,150)" stroke-width="1" opacity="0.7529411764705882" d="M 247.5 98 L 248.5 100 L 247.5 98 Z " /><path fill="rgb(0,83,150)" stroke="rgb(0,83,150)" stroke-width="1" opacity="0.7529411764705882" d="M 126.5 99 L 124.5 102 L 126.5 99 Z " /><path fill="rgb(0,83,150)" stroke="rgb(0,83,150)" stroke-width="1" opacity="0.7529411764705882" d="M 295.5 99 L 294.5 101 L 295.5 99 Z " /><path fill="rgb(0,83,150)" stroke="rgb(0,83,150)" stroke-width="1" opacity="0.7529411764705882" d="M 313.5 99 L 312.5 101 L 313.5 99 Z " /><path fill="rgb(0,83,150)" stroke="rgb(0,83,150)" stroke-width="1" opacity="0.7529411764705882" d="M 346.5 99 L 347 101.5 L 346 101.5 L 346.5 99 Z " /><path fill="rgb(0,83,150)" stroke="rgb(0,83,150)" stroke-width="1" opacity="0.7529411764705882" d="M 239.5 100 L 237.5 103 L 239.5 100 Z " /><path fill="rgb(0,83,150)" stroke="rgb(0,83,150)" stroke-width="1" opacity="0.7529411764705882" d="M 244.5 100 L 246 102.5 L 245 102.5 L 244.5 100 Z " /><path fill="rgb(0,83,150)" stroke="rgb(0,83,150)" stroke-width="1" opacity="0.7529411764705882" d="M 283.5 101 L 281.5 104 L 283.5 101 Z " /><path fill="rgb(0,83,150)" stroke="rgb(0,83,150)" stroke-width="1" opacity="0.7529411764705882" d="M 297.5 101 L 296.5 103 L 297.5 101 Z " /><path fill="rgb(0,83,150)" stroke="rgb(0,83,150)" stroke-width="1" opacity="0.7529411764705882" d="M 290.5 102 L 292 105.5 L 291 105.5 L 290.5 102 Z " /><path fill="rgb(0,83,150)" stroke="rgb(0,83,150)" stroke-width="1" opacity="0.7529411764705882" d="M 228.5 104 L 229.5 106 L 228.5 104 Z " /><path fill="rgb(0,83,150)" stroke="rgb(0,83,150)" stroke-width="1" opacity="0.7529411764705882" d="M 275.5 105 L 273.5 108 L 272.5 106 Q 274 108.5 275.5 105 Z " /><path fill="rgb(0,83,150)" stroke="rgb(0,83,150)" stroke-width="1" opacity="0.7529411764705882" d="M 278.5 107 L 276.5 110 L 278.5 107 Z " /><path fill="rgb(0,83,150)" stroke="rgb(0,83,150)" stroke-width="1" opacity="0.7529411764705882" d="M 236.5 108 L 237.5 110 L 236.5 108 Z " /><path fill="rgb(0,83,150)" stroke="rgb(0,83,150)" stroke-width="1" opacity="0.7529411764705882" d="M 295.5 108 L 296.5 110 L 295.5 108 Z " /><path fill="rgb(0,83,150)" stroke="rgb(0,83,150)" stroke-width="1" opacity="0.7529411764705882" d="M 321.5 108 L 320.5 110 L 319 109.5 L 321.5 108 Z " /><path fill="rgb(0,83,150)" stroke="rgb(0,83,150)" stroke-width="1" opacity="0.7529411764705882" d="M 331.5 108 L 332.5 110 L 331.5 108 Z " /><path fill="rgb(0,83,150)" stroke="rgb(0,83,150)" stroke-width="1" opacity="0.7529411764705882" d="M 324.5 109 L 322.5 112 L 324.5 109 Z " /><path fill="rgb(0,83,150)" stroke="rgb(0,83,150)" stroke-width="1" opacity="0.7529411764705882" d="M 327.5 110 L 328.5 112 L 327.5 110 Z " /><path fill="rgb(0,83,150)" stroke="rgb(0,83,150)" stroke-width="1" opacity="0.7529411764705882" d="M 253.5 111 L 252.5 113 L 253.5 111 Z " /><path fill="rgb(0,83,150)" stroke="rgb(0,83,150)" stroke-width="1" opacity="0.7529411764705882" d="M 313.5 112 L 316 112.5 L 313.5 113 L 313.5 112 Z " /><path fill="rgb(0,83,150)" stroke="rgb(0,83,150)" stroke-width="1" opacity="0.7529411764705882" d="M 317.5 112 L 320 112.5 L 317.5 113 L 317.5 112 Z " /></svg>